<svg width="1366" height="659" xmlns="http://www.w3.org/2000/svg"><g><path d="M-106,-88L-96,407L-65,195Z" fill="#ffee98" stroke="#ffee98"/><path d="M-106,-88L-65,195L-25,103Z" fill="#fffcb2" stroke="#fffcb2"/><path d="M-106,-88L-25,103L50,-69Z" fill="#ffffce" stroke="#ffffce"/><path d="M-106,-88L50,-69L359,-74Z" fill="#fff6c9" stroke="#fff6c9"/><path d="M-106,-88L359,-74L1448,-115Z" fill="#fec39d" stroke="#fec39d"/><path d="M50,-69L-25,103L49,62Z" fill="#fffbb3" stroke="#fffbb3"/><path d="M50,-69L49,62L186,118Z" fill="#fff5a6" stroke="#fff5a6"/><path d="M50,-69L186,118L284,-19Z" fill="#ffefa4" stroke="#ffefa4"/><path d="M50,-69L284,-19L359,-74Z" fill="#ffeab4" stroke="#ffeab4"/><path d="M284,-19L186,118L349,33Z" fill="#ffe487" stroke="#ffe487"/><path d="M284,-19L349,33L359,-74Z" fill="#ffdf9d" stroke="#ffdf9d"/><path d="M359,-74L349,33L516,-64Z" fill="#ffd69e" stroke="#ffd69e"/><path d="M359,-74L516,-64L1328,-104Z" fill="#faaa94" stroke="#faaa94"/><path d="M359,-74L1328,-104L1448,-115Z" fill="#e38592" stroke="#e38592"/><path d="M516,-64L349,33L472,111Z" fill="#fed184" stroke="#fed184"/><path d="M516,-64L472,111L698,96Z" fill="#fec275" stroke="#fec275"/><path d="M516,-64L698,96L729,-59Z" fill="#fcb787" stroke="#fcb787"/><path d="M516,-64L729,-59L1328,-104Z" fill="#f49990" stroke="#f49990"/><path d="M729,-59L698,96L818,56Z" fill="#f9a672" stroke="#f9a672"/><path d="M729,-59L818,56L834,-54Z" fill="#f8a183" stroke="#f8a183"/><path d="M729,-59L834,-54L1328,-104Z" fill="#ea8e91" stroke="#ea8e91"/><path d="M834,-54L818,56L942,57Z" fill="#f49773" stroke="#f49773"/><path d="M834,-54L942,57L1025,-24Z" fill="#ed917e" stroke="#ed917e"/><path d="M834,-54L1025,-24L1137,-47Z" fill="#e78a8d" stroke="#e78a8d"/><path d="M834,-54L1137,-47L1328,-104Z" fill="#de8093" stroke="#de8093"/><path d="M1025,-24L942,57L1081,129Z" fill="#e58667" stroke="#e58667"/><path d="M1025,-24L1081,129L1137,-47Z" fill="#df8076" stroke="#df8076"/><path d="M1137,-47L1081,129L1251,72Z" fill="#d87d6a" stroke="#d87d6a"/><path d="M1137,-47L1251,72L1328,-104Z" fill="#d18089" stroke="#d18089"/><path d="M1328,-104L1251,72L1481,120Z" fill="#c67e75" stroke="#c67e75"/><path d="M1328,-104L1481,120L1448,-115Z" fill="#c0808e" stroke="#c0808e"/><path d="M1448,-115L1481,120L1616,43Z" fill="#b77f7b" stroke="#b77f7b"/><path d="M1448,-115L1616,43L1627,-116Z" fill="#b28098" stroke="#b28098"/><path d="M1627,-116L1616,43L1608,219Z" fill="#ad7e70" stroke="#ad7e70"/><path d="M-25,103L-65,195L52,184Z" fill="#fff18e" stroke="#fff18e"/><path d="M-25,103L52,184L49,62Z" fill="#fff792" stroke="#fff792"/><path d="M49,62L52,184L186,118Z" fill="#fff185" stroke="#fff185"/><path d="M186,118L52,184L192,187Z" fill="#ffe375" stroke="#ffe375"/><path d="M186,118L192,187L349,33Z" fill="#ffe471" stroke="#ffe471"/><path d="M349,33L192,187L350,281Z" fill="#ffd35e" stroke="#ffd35e"/><path d="M349,33L350,281L472,111Z" fill="#ffcf5c" stroke="#ffcf5c"/><path d="M472,111L350,281L574,231Z" fill="#feb44e" stroke="#feb44e"/><path d="M472,111L574,231L698,96Z" fill="#fdb751" stroke="#fdb751"/><path d="M698,96L574,231L688,274Z" fill="#fc9d45" stroke="#fc9d45"/><path d="M698,96L688,274L769,234Z" fill="#fa9242" stroke="#fa9242"/><path d="M698,96L769,234L818,56Z" fill="#f9a04b" stroke="#f9a04b"/><path d="M818,56L769,234L1000,209Z" fill="#f48942" stroke="#f48942"/><path d="M818,56L1000,209L942,57Z" fill="#ee8d51" stroke="#ee8d51"/><path d="M942,57L1000,209L1081,129Z" fill="#e68349" stroke="#e68349"/><path d="M1081,129L1000,209L1179,285Z" fill="#df653f" stroke="#df653f"/><path d="M1081,129L1179,285L1281,173Z" fill="#d66842" stroke="#d66842"/><path d="M1081,129L1281,173L1251,72Z" fill="#d47a4e" stroke="#d47a4e"/><path d="M1251,72L1281,173L1481,120Z" fill="#c77a50" stroke="#c77a50"/><path d="M1481,120L1281,173L1484,253Z" fill="#c06b46" stroke="#c06b46"/><path d="M1481,120L1484,253L1608,219Z" fill="#b66745" stroke="#b66745"/><path d="M1481,120L1608,219L1616,43Z" fill="#b27a50" stroke="#b27a50"/><path d="M-65,195L-96,407L52,184Z" fill="#ffd482" stroke="#ffd482"/><path d="M52,184L-96,407L135,397Z" fill="#ffb870" stroke="#ffb870"/><path d="M52,184L135,397L192,187Z" fill="#ffca6a" stroke="#ffca6a"/><path d="M192,187L135,397L265,315Z" fill="#ffb459" stroke="#ffb459"/><path d="M192,187L265,315L350,281Z" fill="#ffbb53" stroke="#ffbb53"/><path d="M350,281L265,315L390,428Z" fill="#ff9645" stroke="#ff9645"/><path d="M350,281L390,428L537,366Z" fill="#fe863d" stroke="#fe863d"/><path d="M350,281L537,366L574,231Z" fill="#fe9742" stroke="#fe9742"/><path d="M574,231L537,366L630,327Z" fill="#fd853b" stroke="#fd853b"/><path d="M574,231L630,327L688,274Z" fill="#fc893c" stroke="#fc893c"/><path d="M688,274L630,327L723,503Z" fill="#fb602e" stroke="#fb602e"/><path d="M688,274L723,503L852,357Z" fill="#f95129" stroke="#f95129"/><path d="M688,274L852,357L769,234Z" fill="#f97033" stroke="#f97033"/><path d="M769,234L852,357L1000,209Z" fill="#f36b34" stroke="#f36b34"/><path d="M1000,209L852,357L981,334Z" fill="#ec5731" stroke="#ec5731"/><path d="M1000,209L981,334L1179,285Z" fill="#e25435" stroke="#e25435"/><path d="M1179,285L981,334L1116,425Z" fill="#de352c" stroke="#de352c"/><path d="M1179,285L1116,425L1290,417Z" fill="#d52b2a" stroke="#d52b2a"/><path d="M1179,285L1290,417L1372,319Z" fill="#cd382f" stroke="#cd382f"/><path d="M1179,285L1372,319L1281,173Z" fill="#cd5639" stroke="#cd5639"/><path d="M1281,173L1372,319L1484,253Z" fill="#c4593c" stroke="#c4593c"/><path d="M1484,253L1372,319L1461,493Z" fill="#be322f" stroke="#be322f"/><path d="M1484,253L1461,493L1600,347Z" fill="#b72f2f" stroke="#b72f2f"/><path d="M1484,253L1600,347L1608,219Z" fill="#b2513b" stroke="#b2513b"/><path d="M-96,407L-53,817L-24,667Z" fill="#e5807b" stroke="#e5807b"/><path d="M-96,407L-24,667L-40,467Z" fill="#f28378" stroke="#f28378"/><path d="M-96,407L-40,467L135,397Z" fill="#fc9b6d" stroke="#fc9b6d"/><path d="M135,397L-40,467L95,542Z" fill="#f78964" stroke="#f78964"/><path d="M135,397L95,542L166,565Z" fill="#f37a5a" stroke="#f37a5a"/><path d="M135,397L166,565L390,428Z" fill="#f77b4a" stroke="#f77b4a"/><path d="M135,397L390,428L265,315Z" fill="#ff9045" stroke="#ff9045"/><path d="M390,428L166,565L387,548Z" fill="#f16542" stroke="#f16542"/><path d="M390,428L387,548L508,497Z" fill="#f35e3b" stroke="#f35e3b"/><path d="M390,428L508,497L537,366Z" fill="#fa6836" stroke="#fa6836"/><path d="M537,366L508,497L723,503Z" fill="#f65331" stroke="#f65331"/><path d="M537,366L723,503L630,327Z" fill="#fc5c2d" stroke="#fc5c2d"/><path d="M852,357L723,503L826,477Z" fill="#f33626" stroke="#f33626"/><path d="M852,357L826,477L923,522Z" fill="#ed2d25" stroke="#ed2d25"/><path d="M852,357L923,522L981,334Z" fill="#ee3424" stroke="#ee3424"/><path d="M981,334L923,522L1116,425Z" fill="#e32426" stroke="#e32426"/><path d="M1116,425L923,522L1103,625Z" fill="#d40629" stroke="#d40629"/><path d="M1116,425L1103,625L1155,577Z" fill="#cb002b" stroke="#cb002b"/><path d="M1116,425L1155,577L1290,417Z" fill="#cc0f29" stroke="#cc0f29"/><path d="M1290,417L1155,577L1321,497Z" fill="#c4082b" stroke="#c4082b"/><path d="M1290,417L1321,497L1461,493Z" fill="#bd102b" stroke="#bd102b"/><path d="M1290,417L1461,493L1372,319Z" fill="#c21f2a" stroke="#c21f2a"/><path d="M1600,347L1461,493L1541,483Z" fill="#b0172c" stroke="#b0172c"/><path d="M1600,347L1541,483L1540,676Z" fill="#a7072e" stroke="#a7072e"/><path d="M1600,347L1540,676L1537,819Z" fill="#9a0031" stroke="#9a0031"/><path d="M-40,467L-24,667L95,542Z" fill="#ed7f6f" stroke="#ed7f6f"/><path d="M95,542L-24,667L42,679Z" fill="#e57c6c" stroke="#e57c6c"/><path d="M95,542L42,679L166,565Z" fill="#e87662" stroke="#e87662"/><path d="M166,565L42,679L280,666Z" fill="#e37159" stroke="#e37159"/><path d="M166,565L280,666L340,638Z" fill="#e56749" stroke="#e56749"/><path d="M166,565L340,638L387,548Z" fill="#e96345" stroke="#e96345"/><path d="M387,548L340,638L471,711Z" fill="#e45840" stroke="#e45840"/><path d="M387,548L471,711L508,497Z" fill="#e9513c" stroke="#e9513c"/><path d="M508,497L471,711L712,726Z" fill="#e14437" stroke="#e14437"/><path d="M508,497L712,726L723,503Z" fill="#e73831" stroke="#e73831"/><path d="M723,503L712,726L873,722Z" fill="#dc252d" stroke="#dc252d"/><path d="M723,503L873,722L826,477Z" fill="#e52028" stroke="#e52028"/><path d="M826,477L873,722L923,522Z" fill="#de1828" stroke="#de1828"/><path d="M923,522L873,722L978,626Z" fill="#d4122a" stroke="#d4122a"/><path d="M923,522L978,626L1103,625Z" fill="#d00a2a" stroke="#d00a2a"/><path d="M1155,577L1103,625L1257,621Z" fill="#bf002d" stroke="#bf002d"/><path d="M1155,577L1257,621L1321,497Z" fill="#bd002c" stroke="#bd002c"/><path d="M1321,497L1257,621L1435,734Z" fill="#ae002f" stroke="#ae002f"/><path d="M1321,497L1435,734L1461,493Z" fill="#ad002f" stroke="#ad002f"/><path d="M1461,493L1435,734L1540,676Z" fill="#9f0031" stroke="#9f0031"/><path d="M1461,493L1540,676L1541,483Z" fill="#a5002f" stroke="#a5002f"/><path d="M-24,667L-53,817L25,775Z" fill="#d78078" stroke="#d78078"/><path d="M-24,667L25,775L42,679Z" fill="#dc7e72" stroke="#dc7e72"/><path d="M42,679L25,775L190,825Z" fill="#d67868" stroke="#d67868"/><path d="M42,679L190,825L280,666Z" fill="#d9705a" stroke="#d9705a"/><path d="M280,666L190,825L352,841Z" fill="#d3664b" stroke="#d3664b"/><path d="M280,666L352,841L340,638Z" fill="#da6047" stroke="#da6047"/><path d="M340,638L352,841L471,711Z" fill="#d95944" stroke="#d95944"/><path d="M471,711L352,841L531,837Z" fill="#d15241" stroke="#d15241"/><path d="M471,711L531,837L712,726Z" fill="#d44339" stroke="#d44339"/><path d="M712,726L531,837L699,852Z" fill="#cd3837" stroke="#cd3837"/><path d="M712,726L699,852L805,819Z" fill="#cc2a32" stroke="#cc2a32"/><path d="M712,726L805,819L873,722Z" fill="#cf212e" stroke="#cf212e"/><path d="M873,722L805,819L995,792Z" fill="#c6162e" stroke="#c6162e"/><path d="M873,722L995,792L978,626Z" fill="#c8102d" stroke="#c8102d"/><path d="M978,626L995,792L1103,625Z" fill="#c4082d" stroke="#c4082d"/><path d="M1103,625L995,792L1085,809Z" fill="#ba042f" stroke="#ba042f"/><path d="M1103,625L1085,809L1257,621Z" fill="#b8002e" stroke="#b8002e"/><path d="M1257,621L1085,809L1329,855Z" fill="#a90031" stroke="#a90031"/><path d="M1257,621L1329,855L1435,734Z" fill="#a00032" stroke="#a00032"/><path d="M1435,734L1329,855L1478,791Z" fill="#930034" stroke="#930034"/><path d="M1435,734L1478,791L1540,676Z" fill="#930034" stroke="#930034"/><path d="M1540,676L1478,791L1537,819Z" fill="#8d0034" stroke="#8d0034"/><path d="M-53,817L352,841L190,825Z" fill="#ce715e" stroke="#ce715e"/><path d="M-53,817L190,825L25,775Z" fill="#d17b6f" stroke="#d17b6f"/><path d="M352,841L699,852L531,837Z" fill="#cb493e" stroke="#cb493e"/><path d="M699,852L1329,855L1085,809Z" fill="#b10632" stroke="#b10632"/><path d="M699,852L1085,809L805,819Z" fill="#c3192f" stroke="#c3192f"/><path d="M805,819L1085,809L995,792Z" fill="#bb0e30" stroke="#bb0e30"/><path d="M1329,855L1537,819L1478,791Z" fill="#8d0036" stroke="#8d0036"/></g></svg>