<svg width="1366" height="659" xmlns="http://www.w3.org/2000/svg"><g><path d="M-65,-81L-118,409L-56,59Z" fill="#ffe3cf" stroke="#ffe3cf"/><path d="M-65,-81L-56,59L60,-18Z" fill="#fff4ef" stroke="#fff4ef"/><path d="M-65,-81L60,-18L253,-45Z" fill="#feeae1" stroke="#feeae1"/><path d="M-65,-81L253,-45L379,-113Z" fill="#fedfd3" stroke="#fedfd3"/><path d="M60,-18L-56,59L59,127Z" fill="#ffe6d8" stroke="#ffe6d8"/><path d="M60,-18L59,127L233,69Z" fill="#fedbca" stroke="#fedbca"/><path d="M60,-18L233,69L253,-45Z" fill="#fedfd4" stroke="#fedfd4"/><path d="M253,-45L233,69L376,59Z" fill="#fed0be" stroke="#fed0be"/><path d="M253,-45L376,59L379,-113Z" fill="#fecfc0" stroke="#fecfc0"/><path d="M379,-113L376,59L481,-91Z" fill="#fdc5b6" stroke="#fdc5b6"/><path d="M379,-113L481,-91L786,-105Z" fill="#fdb4a5" stroke="#fdb4a5"/><path d="M481,-91L376,59L522,31Z" fill="#fdc0b0" stroke="#fdc0b0"/><path d="M481,-91L522,31L732,-18Z" fill="#fcb1a3" stroke="#fcb1a3"/><path d="M481,-91L732,-18L786,-105Z" fill="#f7a79d" stroke="#f7a79d"/><path d="M732,-18L522,31L706,105Z" fill="#f8a292" stroke="#f8a292"/><path d="M732,-18L706,105L816,78Z" fill="#f29486" stroke="#f29486"/><path d="M732,-18L816,78L786,-105Z" fill="#f19b95" stroke="#f19b95"/><path d="M786,-105L816,78L978,-68Z" fill="#eb9491" stroke="#eb9491"/><path d="M786,-105L978,-68L1087,-73Z" fill="#e18f8f" stroke="#e18f8f"/><path d="M786,-105L1087,-73L1625,-32Z" fill="#cb8388" stroke="#cb8388"/><path d="M978,-68L816,78L935,123Z" fill="#e58982" stroke="#e58982"/><path d="M978,-68L935,123L1087,-73Z" fill="#dc8c8d" stroke="#dc8c8d"/><path d="M1087,-73L935,123L1166,27Z" fill="#d58483" stroke="#d58483"/><path d="M1087,-73L1166,27L1239,-53Z" fill="#cb8388" stroke="#cb8388"/><path d="M1087,-73L1239,-53L1625,-32Z" fill="#bb8083" stroke="#bb8083"/><path d="M1239,-53L1166,27L1267,21Z" fill="#c58086" stroke="#c58086"/><path d="M1239,-53L1267,21L1445,-19Z" fill="#bb8083" stroke="#bb8083"/><path d="M1239,-53L1445,-19L1625,-32Z" fill="#ae8080" stroke="#ae8080"/><path d="M1445,-19L1267,21L1464,22Z" fill="#b37e7e" stroke="#b37e7e"/><path d="M1445,-19L1464,22L1625,-32Z" fill="#a78080" stroke="#a78080"/><path d="M1625,-32L1464,22L1591,123Z" fill="#a27974" stroke="#a27974"/><path d="M1625,-32L1591,123L1621,704Z" fill="#9c3f2c" stroke="#9c3f2c"/><path d="M-56,59L-118,409L-75,255Z" fill="#ffc1ab" stroke="#ffc1ab"/><path d="M-56,59L-75,255L33,175Z" fill="#ffd4be" stroke="#ffd4be"/><path d="M-56,59L33,175L59,127Z" fill="#ffdbc5" stroke="#ffdbc5"/><path d="M59,127L33,175L256,245Z" fill="#febfa3" stroke="#febfa3"/><path d="M59,127L256,245L233,69Z" fill="#fec3a6" stroke="#fec3a6"/><path d="M233,69L256,245L376,59Z" fill="#febea0" stroke="#febea0"/><path d="M376,59L256,245L330,283Z" fill="#fea585" stroke="#fea585"/><path d="M376,59L330,283L522,283Z" fill="#fe9675" stroke="#fe9675"/><path d="M376,59L522,283L522,31Z" fill="#fda788" stroke="#fda788"/><path d="M522,31L522,283L706,105Z" fill="#fb9677" stroke="#fb9677"/><path d="M706,105L522,283L721,219Z" fill="#f87c5e" stroke="#f87c5e"/><path d="M706,105L721,219L816,78Z" fill="#f3866e" stroke="#f3866e"/><path d="M816,78L721,219L866,263Z" fill="#f06f59" stroke="#f06f59"/><path d="M816,78L866,263L935,123Z" fill="#e97461" stroke="#e97461"/><path d="M935,123L866,263L1021,269Z" fill="#e25d4a" stroke="#e25d4a"/><path d="M935,123L1021,269L1117,238Z" fill="#d95b4a" stroke="#d95b4a"/><path d="M935,123L1117,238L1166,27Z" fill="#d47163" stroke="#d47163"/><path d="M1166,27L1117,238L1264,245Z" fill="#c95f52" stroke="#c95f52"/><path d="M1166,27L1264,245L1267,21Z" fill="#c46e67" stroke="#c46e67"/><path d="M1267,21L1264,245L1426,265Z" fill="#bb5a4c" stroke="#bb5a4c"/><path d="M1267,21L1426,265L1464,22Z" fill="#b46d61" stroke="#b46d61"/><path d="M1464,22L1426,265L1573,170Z" fill="#a96150" stroke="#a96150"/><path d="M1464,22L1573,170L1591,123Z" fill="#a36d5f" stroke="#a36d5f"/><path d="M1591,123L1573,170L1583,581Z" fill="#9f3828" stroke="#9f3828"/><path d="M1591,123L1583,581L1621,704Z" fill="#8d1614" stroke="#8d1614"/><path d="M-75,255L-118,409L17,394Z" fill="#ff9f92" stroke="#ff9f92"/><path d="M-75,255L17,394L33,175Z" fill="#ffb098" stroke="#ffb098"/><path d="M33,175L17,394L202,408Z" fill="#fe9884" stroke="#fe9884"/><path d="M33,175L202,408L256,245Z" fill="#fe9e81" stroke="#fe9e81"/><path d="M256,245L202,408L330,283Z" fill="#fe8a6e" stroke="#fe8a6e"/><path d="M330,283L202,408L242,474Z" fill="#fe7562" stroke="#fe7562"/><path d="M330,283L242,474L432,367Z" fill="#fe705b" stroke="#fe705b"/><path d="M330,283L432,367L522,283Z" fill="#fd7659" stroke="#fd7659"/><path d="M522,283L432,367L577,428Z" fill="#fd5e46" stroke="#fd5e46"/><path d="M522,283L577,428L620,417Z" fill="#fc523d" stroke="#fc523d"/><path d="M522,283L620,417L721,219Z" fill="#f96045" stroke="#f96045"/><path d="M721,219L620,417L807,322Z" fill="#f4523d" stroke="#f4523d"/><path d="M721,219L807,322L866,263Z" fill="#f05740" stroke="#f05740"/><path d="M866,263L807,322L993,330Z" fill="#e84636" stroke="#e84636"/><path d="M866,263L993,330L1021,269Z" fill="#e04837" stroke="#e04837"/><path d="M1021,269L993,330L1135,348Z" fill="#d73b30" stroke="#d73b30"/><path d="M1021,269L1135,348L1117,238Z" fill="#d24133" stroke="#d24133"/><path d="M1117,238L1135,348L1264,245Z" fill="#ca3f32" stroke="#ca3f32"/><path d="M1264,245L1135,348L1309,364Z" fill="#c33029" stroke="#c33029"/><path d="M1264,245L1309,364L1426,265Z" fill="#b9382b" stroke="#b9382b"/><path d="M1426,265L1309,364L1427,428Z" fill="#b4271f" stroke="#b4271f"/><path d="M1426,265L1427,428L1527,379Z" fill="#ac251d" stroke="#ac251d"/><path d="M1426,265L1527,379L1573,170Z" fill="#a73d2b" stroke="#a73d2b"/><path d="M1573,170L1527,379L1583,581Z" fill="#a1201a" stroke="#a1201a"/><path d="M-118,409L-95,883L-35,632Z" fill="#c98585" stroke="#c98585"/><path d="M-118,409L-35,632L-40,494Z" fill="#e58c87" stroke="#e58c87"/><path d="M-118,409L-40,494L17,394Z" fill="#f78f88" stroke="#f78f88"/><path d="M17,394L-40,494L133,582Z" fill="#ea837b" stroke="#ea837b"/><path d="M17,394L133,582L202,408Z" fill="#f07d71" stroke="#f07d71"/><path d="M202,408L133,582L242,474Z" fill="#ea7366" stroke="#ea7366"/><path d="M432,367L242,474L404,490Z" fill="#f36452" stroke="#f36452"/><path d="M432,367L404,490L577,428Z" fill="#f65745" stroke="#f65745"/><path d="M577,428L404,490L561,524Z" fill="#ea4e3d" stroke="#ea4e3d"/><path d="M577,428L561,524L662,518Z" fill="#e54335" stroke="#e54335"/><path d="M577,428L662,518L620,417Z" fill="#ec4435" stroke="#ec4435"/><path d="M620,417L662,518L807,322Z" fill="#f03e31" stroke="#f03e31"/><path d="M807,322L662,518L857,563Z" fill="#e1312a" stroke="#e1312a"/><path d="M807,322L857,563L968,518Z" fill="#d92925" stroke="#d92925"/><path d="M807,322L968,518L993,330Z" fill="#e42d28" stroke="#e42d28"/><path d="M993,330L968,518L1135,348Z" fill="#d82623" stroke="#d82623"/><path d="M1135,348L968,518L1155,501Z" fill="#c51f1f" stroke="#c51f1f"/><path d="M1135,348L1155,501L1309,364Z" fill="#c51c1d" stroke="#c51c1d"/><path d="M1309,364L1155,501L1285,531Z" fill="#b2161a" stroke="#b2161a"/><path d="M1309,364L1285,531L1427,428Z" fill="#ae1818" stroke="#ae1818"/><path d="M1427,428L1285,531L1423,515Z" fill="#9f1415" stroke="#9f1415"/><path d="M1427,428L1423,515L1527,379Z" fill="#a21815" stroke="#a21815"/><path d="M1527,379L1423,515L1583,581Z" fill="#921413" stroke="#921413"/><path d="M-40,494L-35,632L133,582Z" fill="#d87f7a" stroke="#d87f7a"/><path d="M133,582L-35,632L130,708Z" fill="#c87570" stroke="#c87570"/><path d="M133,582L130,708L274,654Z" fill="#c76a62" stroke="#c76a62"/><path d="M133,582L274,654L242,474Z" fill="#d76b60" stroke="#d76b60"/><path d="M242,474L274,654L404,490Z" fill="#de6455" stroke="#de6455"/><path d="M404,490L274,654L317,710Z" fill="#cd5b4f" stroke="#cd5b4f"/><path d="M404,490L317,710L557,684Z" fill="#ca4f42" stroke="#ca4f42"/><path d="M404,490L557,684L561,524Z" fill="#d8493a" stroke="#d8493a"/><path d="M561,524L557,684L634,670Z" fill="#c93c31" stroke="#c93c31"/><path d="M561,524L634,670L662,518Z" fill="#d33c30" stroke="#d33c30"/><path d="M662,518L634,670L857,563Z" fill="#cb3029" stroke="#cb3029"/><path d="M857,563L634,670L824,716Z" fill="#b92523" stroke="#b92523"/><path d="M857,563L824,716L935,723Z" fill="#ad1c1e" stroke="#ad1c1e"/><path d="M857,563L935,723L968,518Z" fill="#b71e1f" stroke="#b71e1f"/><path d="M968,518L935,723L1150,666Z" fill="#a5161b" stroke="#a5161b"/><path d="M968,518L1150,666L1155,501Z" fill="#ae171b" stroke="#ae171b"/><path d="M1155,501L1150,666L1285,531Z" fill="#a21118" stroke="#a21118"/><path d="M1285,531L1150,666L1297,622Z" fill="#940c15" stroke="#940c15"/><path d="M1285,531L1297,622L1423,515Z" fill="#951014" stroke="#951014"/><path d="M1423,515L1297,622L1394,695Z" fill="#860c11" stroke="#860c11"/><path d="M1423,515L1394,695L1583,581Z" fill="#7f0d0f" stroke="#7f0d0f"/><path d="M1583,581L1394,695L1621,704Z" fill="#6a090d" stroke="#6a090d"/><path d="M-35,632L-95,883L122,823Z" fill="#aa7475" stroke="#aa7475"/><path d="M-35,632L122,823L130,708Z" fill="#b7706d" stroke="#b7706d"/><path d="M130,708L122,823L282,861Z" fill="#a6615d" stroke="#a6615d"/><path d="M130,708L282,861L317,710Z" fill="#ae5c55" stroke="#ae5c55"/><path d="M130,708L317,710L274,654Z" fill="#bd6159" stroke="#bd6159"/><path d="M317,710L282,861L414,806Z" fill="#a64f48" stroke="#a64f48"/><path d="M317,710L414,806L557,684Z" fill="#b3473e" stroke="#b3473e"/><path d="M557,684L414,806L556,861Z" fill="#a83a32" stroke="#a83a32"/><path d="M557,684L556,861L672,803Z" fill="#a6302a" stroke="#a6302a"/><path d="M557,684L672,803L634,670Z" fill="#b2312a" stroke="#b2312a"/><path d="M634,670L672,803L824,716Z" fill="#ab2624" stroke="#ab2624"/><path d="M824,716L672,803L826,859Z" fill="#9a1c1e" stroke="#9a1c1e"/><path d="M824,716L826,859L935,723Z" fill="#99151a" stroke="#99151a"/><path d="M935,723L826,859L991,780Z" fill="#8f1118" stroke="#8f1118"/><path d="M935,723L991,780L1150,666Z" fill="#910f17" stroke="#910f17"/><path d="M1150,666L991,780L1167,823Z" fill="#820913" stroke="#820913"/><path d="M1150,666L1167,823L1246,822Z" fill="#760410" stroke="#760410"/><path d="M1150,666L1246,822L1297,622Z" fill="#800611" stroke="#800611"/><path d="M1297,622L1246,822L1387,771Z" fill="#70030d" stroke="#70030d"/><path d="M1297,622L1387,771L1394,695Z" fill="#74060d" stroke="#74060d"/><path d="M1394,695L1387,771L1557,795Z" fill="#5e0209" stroke="#5e0209"/><path d="M1394,695L1557,795L1621,704Z" fill="#5b040a" stroke="#5b040a"/><path d="M-95,883L826,859L556,861Z" fill="#954439" stroke="#954439"/><path d="M-95,883L556,861L282,861Z" fill="#965a51" stroke="#965a51"/><path d="M-95,883L282,861L122,823Z" fill="#996864" stroke="#996864"/><path d="M282,861L556,861L414,806Z" fill="#9b453c" stroke="#9b453c"/><path d="M556,861L826,859L672,803Z" fill="#942622" stroke="#942622"/><path d="M826,859L1557,795L1246,822Z" fill="#68010d" stroke="#68010d"/><path d="M826,859L1246,822L1167,823Z" fill="#730811" stroke="#730811"/><path d="M826,859L1167,823L991,780Z" fill="#7f0d14" stroke="#7f0d14"/><path d="M1246,822L1557,795L1387,771Z" fill="#5b0009" stroke="#5b0009"/></g></svg>