<svg width="1366" height="659" xmlns="http://www.w3.org/2000/svg"><g><path d="M-113,-80L-100,644L-96,49Z" fill="#f8c685" stroke="#f8c685"/><path d="M-113,-80L-96,49L101,-28Z" fill="#f8ad37" stroke="#f8ad37"/><path d="M-113,-80L101,-28L178,-61Z" fill="#f9b03a" stroke="#f9b03a"/><path d="M-113,-80L178,-61L379,-120Z" fill="#f9b440" stroke="#f9b440"/><path d="M101,-28L-96,49L122,30Z" fill="#f9b956" stroke="#f9b956"/><path d="M101,-28L122,30L178,-61Z" fill="#f9bd59" stroke="#f9bd59"/><path d="M178,-61L122,30L221,93Z" fill="#f9c672" stroke="#f9c672"/><path d="M178,-61L221,93L379,-120Z" fill="#fac76e" stroke="#fac76e"/><path d="M379,-120L221,93L372,115Z" fill="#fad593" stroke="#fad593"/><path d="M379,-120L372,115L539,64Z" fill="#fbdda5" stroke="#fbdda5"/><path d="M379,-120L539,64L560,-67Z" fill="#f7d38f" stroke="#f7d38f"/><path d="M379,-120L560,-67L626,-57Z" fill="#f4ca7d" stroke="#f4ca7d"/><path d="M379,-120L626,-57L971,-35Z" fill="#e6bb79" stroke="#e6bb79"/><path d="M379,-120L971,-35L1239,-56Z" fill="#d1a46e" stroke="#d1a46e"/><path d="M379,-120L1239,-56L1395,-66Z" fill="#c39261" stroke="#c39261"/><path d="M379,-120L1395,-66L1521,-70Z" fill="#b9875a" stroke="#b9875a"/><path d="M560,-67L539,64L626,-57Z" fill="#efcc93" stroke="#efcc93"/><path d="M626,-57L539,64L718,103Z" fill="#e9cea7" stroke="#e9cea7"/><path d="M626,-57L718,103L790,-35Z" fill="#e1c095" stroke="#e1c095"/><path d="M626,-57L790,-35L971,-35Z" fill="#d8b07d" stroke="#d8b07d"/><path d="M790,-35L718,103L880,80Z" fill="#d8bca2" stroke="#d8bca2"/><path d="M790,-35L880,80L971,-35Z" fill="#cfac8b" stroke="#cfac8b"/><path d="M971,-35L880,80L988,129Z" fill="#c9ac9d" stroke="#c9ac9d"/><path d="M971,-35L988,129L1107,-16Z" fill="#c19f8c" stroke="#c19f8c"/><path d="M971,-35L1107,-16L1239,-56Z" fill="#b88d6e" stroke="#b88d6e"/><path d="M1107,-16L988,129L1167,94Z" fill="#ba9d9a" stroke="#ba9d9a"/><path d="M1107,-16L1167,94L1257,57Z" fill="#b1908b" stroke="#b1908b"/><path d="M1107,-16L1257,57L1239,-56Z" fill="#ae8675" stroke="#ae8675"/><path d="M1239,-56L1257,57L1395,-66Z" fill="#a47969" stroke="#a47969"/><path d="M1395,-66L1257,57L1477,17Z" fill="#9c736e" stroke="#9c736e"/><path d="M1395,-66L1477,17L1521,-70Z" fill="#936358" stroke="#936358"/><path d="M1521,-70L1477,17L1584,24Z" fill="#8d6061" stroke="#8d6061"/><path d="M-96,49L-100,644L-71,505Z" fill="#daa685" stroke="#daa685"/><path d="M-96,49L-71,505L-55,316Z" fill="#ecbc8d" stroke="#ecbc8d"/><path d="M-96,49L-55,316L-57,168Z" fill="#f8c581" stroke="#f8c581"/><path d="M-96,49L-57,168L122,30Z" fill="#f8bd66" stroke="#f8bd66"/><path d="M122,30L-57,168L85,247Z" fill="#f9cc8d" stroke="#f9cc8d"/><path d="M122,30L85,247L221,93Z" fill="#f9d195" stroke="#f9d195"/><path d="M221,93L85,247L260,227Z" fill="#f9deb9" stroke="#f9deb9"/><path d="M221,93L260,227L372,115Z" fill="#fae1ba" stroke="#fae1ba"/><path d="M372,115L260,227L349,257Z" fill="#faecd9" stroke="#faecd9"/><path d="M372,115L349,257L529,239Z" fill="#fbf6ed" stroke="#fbf6ed"/><path d="M372,115L529,239L539,64Z" fill="#f9edd9" stroke="#f9edd9"/><path d="M539,64L529,239L624,205Z" fill="#f0e8e1" stroke="#f0e8e1"/><path d="M539,64L624,205L718,103Z" fill="#eadaca" stroke="#eadaca"/><path d="M718,103L624,205L828,172Z" fill="#e0d4d3" stroke="#e0d4d3"/><path d="M718,103L828,172L880,80Z" fill="#d7c5be" stroke="#d7c5be"/><path d="M880,80L828,172L988,129Z" fill="#cdbbbc" stroke="#cdbbbc"/><path d="M988,129L828,172L926,240Z" fill="#ccc1d1" stroke="#ccc1d1"/><path d="M988,129L926,240L1097,251Z" fill="#c3bad6" stroke="#c3bad6"/><path d="M988,129L1097,251L1167,94Z" fill="#baaabe" stroke="#baaabe"/><path d="M1167,94L1097,251L1332,227Z" fill="#afa2c5" stroke="#afa2c5"/><path d="M1167,94L1332,227L1257,57Z" fill="#a992a8" stroke="#a992a8"/><path d="M1257,57L1332,227L1477,17Z" fill="#9e8397" stroke="#9e8397"/><path d="M1477,17L1332,227L1483,193Z" fill="#9780a6" stroke="#9780a6"/><path d="M1477,17L1483,193L1584,24Z" fill="#8e6e85" stroke="#8e6e85"/><path d="M1584,24L1483,193L1608,239Z" fill="#8976a1" stroke="#8976a1"/><path d="M-57,168L-55,316L85,247Z" fill="#f4cc9d" stroke="#f4cc9d"/><path d="M85,247L-55,316L48,366Z" fill="#e9c2a0" stroke="#e9c2a0"/><path d="M85,247L48,366L234,327Z" fill="#eacab4" stroke="#eacab4"/><path d="M85,247L234,327L260,227Z" fill="#f2dac4" stroke="#f2dac4"/><path d="M260,227L234,327L349,257Z" fill="#f2e1d6" stroke="#f2e1d6"/><path d="M349,257L234,327L368,355Z" fill="#ebdcdb" stroke="#ebdcdb"/><path d="M349,257L368,355L529,239Z" fill="#f0ebf0" stroke="#f0ebf0"/><path d="M529,239L368,355L567,433Z" fill="#e3dff3" stroke="#e3dff3"/><path d="M529,239L567,433L703,397Z" fill="#d6d0ec" stroke="#d6d0ec"/><path d="M529,239L703,397L624,205Z" fill="#e0dcef" stroke="#e0dcef"/><path d="M624,205L703,397L823,365Z" fill="#cfc9e7" stroke="#cfc9e7"/><path d="M624,205L823,365L828,172Z" fill="#d7d3e8" stroke="#d7d3e8"/><path d="M828,172L823,365L926,240Z" fill="#cbc5e2" stroke="#cbc5e2"/><path d="M926,240L823,365L984,391Z" fill="#bab1dc" stroke="#bab1dc"/><path d="M926,240L984,391L1079,319Z" fill="#b3aad7" stroke="#b3aad7"/><path d="M926,240L1079,319L1097,251Z" fill="#b7afd8" stroke="#b7afd8"/><path d="M1097,251L1079,319L1261,412Z" fill="#a297ce" stroke="#a297ce"/><path d="M1097,251L1261,412L1332,227Z" fill="#9e93cb" stroke="#9e93cb"/><path d="M1332,227L1261,412L1378,374Z" fill="#8e80c4" stroke="#8e80c4"/><path d="M1332,227L1378,374L1483,193Z" fill="#9286c3" stroke="#9286c3"/><path d="M1483,193L1378,374L1590,420Z" fill="#7f6fbb" stroke="#7f6fbb"/><path d="M1483,193L1590,420L1608,239Z" fill="#7f73b9" stroke="#7f73b9"/><path d="M1608,239L1590,420L1632,565Z" fill="#655bb0" stroke="#655bb0"/><path d="M-55,316L-71,505L48,366Z" fill="#dbac92" stroke="#dbac92"/><path d="M48,366L-71,505L120,535Z" fill="#cfa49a" stroke="#cfa49a"/><path d="M48,366L120,535L234,327Z" fill="#dab9b1" stroke="#dab9b1"/><path d="M234,327L120,535L183,563Z" fill="#cfb0b7" stroke="#cfb0b7"/><path d="M234,327L183,563L354,556Z" fill="#ceb5c6" stroke="#ceb5c6"/><path d="M234,327L354,556L368,355Z" fill="#dac9d6" stroke="#dac9d6"/><path d="M368,355L354,556L567,433Z" fill="#d5cceb" stroke="#d5cceb"/><path d="M567,433L354,556L582,493Z" fill="#c9c0eb" stroke="#c9c0eb"/><path d="M567,433L582,493L703,397Z" fill="#c6bde7" stroke="#c6bde7"/><path d="M703,397L582,493L731,466Z" fill="#beb5e3" stroke="#beb5e3"/><path d="M703,397L731,466L823,365Z" fill="#bdb4e1" stroke="#bdb4e1"/><path d="M823,365L731,466L875,470Z" fill="#b3a8dd" stroke="#b3a8dd"/><path d="M823,365L875,470L984,391Z" fill="#aea4d9" stroke="#aea4d9"/><path d="M984,391L875,470L947,511Z" fill="#a295d4" stroke="#a295d4"/><path d="M984,391L947,511L1166,469Z" fill="#988ace" stroke="#988ace"/><path d="M984,391L1166,469L1079,319Z" fill="#9e92cf" stroke="#9e92cf"/><path d="M1079,319L1166,469L1261,412Z" fill="#9486ca" stroke="#9486ca"/><path d="M1261,412L1166,469L1243,504Z" fill="#8473c3" stroke="#8473c3"/><path d="M1261,412L1243,504L1382,501Z" fill="#7b69bf" stroke="#7b69bf"/><path d="M1261,412L1382,501L1378,374Z" fill="#7d6cbe" stroke="#7d6cbe"/><path d="M1378,374L1382,501L1590,420Z" fill="#725fb8" stroke="#725fb8"/><path d="M1590,420L1382,501L1632,565Z" fill="#5e4ab0" stroke="#5e4ab0"/><path d="M-71,505L-100,644L27,628Z" fill="#ba8484" stroke="#ba8484"/><path d="M-71,505L27,628L120,535Z" fill="#c09294" stroke="#c09294"/><path d="M120,535L27,628L183,563Z" fill="#be96a4" stroke="#be96a4"/><path d="M183,563L27,628L265,640Z" fill="#b893ac" stroke="#b893ac"/><path d="M183,563L265,640L354,556Z" fill="#bda2c3" stroke="#bda2c3"/><path d="M354,556L265,640L431,616Z" fill="#bba7d3" stroke="#bba7d3"/><path d="M354,556L431,616L582,493Z" fill="#c4baea" stroke="#c4baea"/><path d="M582,493L431,616L616,624Z" fill="#b7abe4" stroke="#b7abe4"/><path d="M582,493L616,624L731,466Z" fill="#b5a9e1" stroke="#b5a9e1"/><path d="M731,466L616,624L834,656Z" fill="#a395da" stroke="#a395da"/><path d="M731,466L834,656L875,470Z" fill="#a395d7" stroke="#a395d7"/><path d="M875,470L834,656L947,511Z" fill="#998ad2" stroke="#998ad2"/><path d="M947,511L834,656L947,633Z" fill="#8d7cce" stroke="#8d7cce"/><path d="M947,511L947,633L1069,617Z" fill="#8776ca" stroke="#8776ca"/><path d="M947,511L1069,617L1166,469Z" fill="#8978c9" stroke="#8978c9"/><path d="M1166,469L1069,617L1243,504Z" fill="#7f6ec4" stroke="#7f6ec4"/><path d="M1243,504L1069,617L1291,695Z" fill="#6e5abd" stroke="#6e5abd"/><path d="M1243,504L1291,695L1365,656Z" fill="#624cb7" stroke="#624cb7"/><path d="M1243,504L1365,656L1382,501Z" fill="#6955b9" stroke="#6955b9"/><path d="M1382,501L1365,656L1623,630Z" fill="#553eaf" stroke="#553eaf"/><path d="M1382,501L1623,630L1632,565Z" fill="#513cab" stroke="#513cab"/><path d="M1632,565L1623,630L1619,786Z" fill="#3a29a2" stroke="#3a29a2"/><path d="M-100,644L-36,799L27,628Z" fill="#aa7281" stroke="#aa7281"/><path d="M27,628L-36,799L109,845Z" fill="#9f6b8b" stroke="#9f6b8b"/><path d="M27,628L109,845L265,640Z" fill="#a97fa2" stroke="#a97fa2"/><path d="M265,640L109,845L192,878Z" fill="#9b74a9" stroke="#9b74a9"/><path d="M265,640L192,878L337,849Z" fill="#9b7ab8" stroke="#9b7ab8"/><path d="M265,640L337,849L431,616Z" fill="#ab93cd" stroke="#ab93cd"/><path d="M431,616L337,849L541,710Z" fill="#a796de" stroke="#a796de"/><path d="M431,616L541,710L616,624Z" fill="#ac9fe2" stroke="#ac9fe2"/><path d="M541,710L337,849L540,785Z" fill="#9c8bde" stroke="#9c8bde"/><path d="M541,710L540,785L653,880Z" fill="#907dd8" stroke="#907dd8"/><path d="M541,710L653,880L616,624Z" fill="#9685d9" stroke="#9685d9"/><path d="M616,624L653,880L834,656Z" fill="#8f7dd4" stroke="#8f7dd4"/><path d="M834,656L653,880L882,876Z" fill="#7862cb" stroke="#7862cb"/><path d="M834,656L882,876L933,795Z" fill="#735dc7" stroke="#735dc7"/><path d="M834,656L933,795L947,633Z" fill="#7e6aca" stroke="#7e6aca"/><path d="M947,633L933,795L1069,617Z" fill="#7864c6" stroke="#7864c6"/><path d="M1069,617L933,795L1106,827Z" fill="#6851c0" stroke="#6851c0"/><path d="M1069,617L1106,827L1291,695Z" fill="#614abb" stroke="#614abb"/><path d="M1291,695L1106,827L1259,817Z" fill="#4f36b4" stroke="#4f36b4"/><path d="M1291,695L1259,817L1394,838Z" fill="#452aae" stroke="#452aae"/><path d="M1291,695L1394,838L1365,656Z" fill="#4a30af" stroke="#4a30af"/><path d="M1365,656L1394,838L1619,786Z" fill="#3a1da7" stroke="#3a1da7"/><path d="M1365,656L1619,786L1623,630Z" fill="#3d24a6" stroke="#3d24a6"/><path d="M-36,799L192,878L109,845Z" fill="#926093" stroke="#926093"/><path d="M192,878L653,880L337,849Z" fill="#8f77ce" stroke="#8f77ce"/><path d="M337,849L653,880L540,785Z" fill="#8f7cd9" stroke="#8f7cd9"/><path d="M882,876L1394,838L1106,827Z" fill="#4e33b5" stroke="#4e33b5"/><path d="M882,876L1106,827L933,795Z" fill="#6047bf" stroke="#6047bf"/><path d="M1106,827L1394,838L1259,817Z" fill="#4428af" stroke="#4428af"/></g></svg>