<svg width="1366" height="659" xmlns="http://www.w3.org/2000/svg"><g><path d="M-126,-68L-131,583L-67,223Z" fill="#d97451" stroke="#d97451"/><path d="M-126,-68L-67,223L-68,26Z" fill="#e63125" stroke="#e63125"/><path d="M-126,-68L-68,26L22,-25Z" fill="#e80614" stroke="#e80614"/><path d="M-126,-68L22,-25L171,-71Z" fill="#ec1215" stroke="#ec1215"/><path d="M-126,-68L171,-71L518,-122Z" fill="#f63621" stroke="#f63621"/><path d="M22,-25L-68,26L37,46Z" fill="#eb2623" stroke="#eb2623"/><path d="M22,-25L37,46L171,-71Z" fill="#f02623" stroke="#f02623"/><path d="M171,-71L37,46L182,133Z" fill="#f24e35" stroke="#f24e35"/><path d="M171,-71L182,133L327,-21Z" fill="#f8573a" stroke="#f8573a"/><path d="M171,-71L327,-21L518,-122Z" fill="#fe5730" stroke="#fe5730"/><path d="M327,-21L182,133L335,56Z" fill="#fb794a" stroke="#fb794a"/><path d="M327,-21L335,56L581,51Z" fill="#f67d50" stroke="#f67d50"/><path d="M327,-21L581,51L518,-122Z" fill="#ee6248" stroke="#ee6248"/><path d="M518,-122L581,51L697,-84Z" fill="#df694f" stroke="#df694f"/><path d="M518,-122L697,-84L1102,-73Z" fill="#c56355" stroke="#c56355"/><path d="M518,-122L1102,-73L1455,-63Z" fill="#95425d" stroke="#95425d"/><path d="M697,-84L581,51L712,27Z" fill="#d87e61" stroke="#d87e61"/><path d="M697,-84L712,27L835,-61Z" fill="#c9665c" stroke="#c9665c"/><path d="M697,-84L835,-61L1102,-73Z" fill="#b15559" stroke="#b15559"/><path d="M835,-61L712,27L781,71Z" fill="#c47a6a" stroke="#c47a6a"/><path d="M835,-61L781,71L942,-36Z" fill="#b56567" stroke="#b56567"/><path d="M835,-61L942,-36L1102,-73Z" fill="#a14a5f" stroke="#a14a5f"/><path d="M942,-36L781,71L860,180Z" fill="#b48e7b" stroke="#b48e7b"/><path d="M942,-36L860,180L1009,120Z" fill="#a68d81" stroke="#a68d81"/><path d="M942,-36L1009,120L1102,-73Z" fill="#975670" stroke="#975670"/><path d="M1102,-73L1009,120L1145,132Z" fill="#8a6a7f" stroke="#8a6a7f"/><path d="M1102,-73L1145,132L1313,69Z" fill="#80547e" stroke="#80547e"/><path d="M1102,-73L1313,69L1318,-45Z" fill="#802e72" stroke="#802e72"/><path d="M1102,-73L1318,-45L1455,-63Z" fill="#801f69" stroke="#801f69"/><path d="M1318,-45L1313,69L1377,40Z" fill="#80357e" stroke="#80357e"/><path d="M1318,-45L1377,40L1455,-63Z" fill="#801875" stroke="#801875"/><path d="M1455,-63L1377,40L1553,-41Z" fill="#800f78" stroke="#800f78"/><path d="M1553,-41L1377,40L1601,118Z" fill="#802888" stroke="#802888"/><path d="M-68,26L-67,223L37,46Z" fill="#e94b34" stroke="#e94b34"/><path d="M37,46L-67,223L120,200Z" fill="#ed7649" stroke="#ed7649"/><path d="M37,46L120,200L182,133Z" fill="#f2794a" stroke="#f2794a"/><path d="M182,133L120,200L263,190Z" fill="#f49f5d" stroke="#f49f5d"/><path d="M182,133L263,190L335,56Z" fill="#fa9959" stroke="#fa9959"/><path d="M335,56L263,190L396,182Z" fill="#feb164" stroke="#feb164"/><path d="M335,56L396,182L581,51Z" fill="#f3a263" stroke="#f3a263"/><path d="M581,51L396,182L558,192Z" fill="#eabe75" stroke="#eabe75"/><path d="M581,51L558,192L658,166Z" fill="#dfc17d" stroke="#dfc17d"/><path d="M581,51L658,166L712,27Z" fill="#d9a974" stroke="#d9a974"/><path d="M712,27L658,166L781,71Z" fill="#cfaa7a" stroke="#cfaa7a"/><path d="M781,71L658,166L860,180Z" fill="#c6be88" stroke="#c6be88"/><path d="M1009,120L860,180L1023,188Z" fill="#a1b094" stroke="#a1b094"/><path d="M1009,120L1023,188L1145,132Z" fill="#8f9b93" stroke="#8f9b93"/><path d="M1145,132L1023,188L1165,191Z" fill="#849f9b" stroke="#849f9b"/><path d="M1145,132L1165,191L1251,215Z" fill="#7d969f" stroke="#7d969f"/><path d="M1145,132L1251,215L1313,69Z" fill="#808097" stroke="#808097"/><path d="M1313,69L1251,215L1396,217Z" fill="#7f83a1" stroke="#7f83a1"/><path d="M1313,69L1396,217L1377,40Z" fill="#805f94" stroke="#805f94"/><path d="M1377,40L1396,217L1601,118Z" fill="#805c9b" stroke="#805c9b"/><path d="M1601,118L1396,217L1630,273Z" fill="#7a6db1" stroke="#7a6db1"/><path d="M-67,223L-131,583L-41,412Z" fill="#aa696e" stroke="#aa696e"/><path d="M-67,223L-41,412L36,336Z" fill="#d1866c" stroke="#d1866c"/><path d="M-67,223L36,336L120,200Z" fill="#df8860" stroke="#df8860"/><path d="M120,200L36,336L244,352Z" fill="#dea476" stroke="#dea476"/><path d="M120,200L244,352L263,190Z" fill="#eaae71" stroke="#eaae71"/><path d="M263,190L244,352L396,182Z" fill="#f0c179" stroke="#f0c179"/><path d="M396,182L244,352L383,411Z" fill="#e7d58f" stroke="#e7d58f"/><path d="M396,182L383,411L483,385Z" fill="#dcdc9a" stroke="#dcdc9a"/><path d="M396,182L483,385L558,192Z" fill="#e0d58d" stroke="#e0d58d"/><path d="M558,192L483,385L731,407Z" fill="#c7e8ab" stroke="#c7e8ab"/><path d="M558,192L731,407L658,166Z" fill="#cbe19e" stroke="#cbe19e"/><path d="M658,166L731,407L860,180Z" fill="#bbdaa3" stroke="#bbdaa3"/><path d="M860,180L731,407L875,345Z" fill="#a5d9b4" stroke="#a5d9b4"/><path d="M860,180L875,345L985,343Z" fill="#98cbb1" stroke="#98cbb1"/><path d="M860,180L985,343L1023,188Z" fill="#97bda7" stroke="#97bda7"/><path d="M1023,188L985,343L1135,332Z" fill="#7eb8b5" stroke="#7eb8b5"/><path d="M1023,188L1135,332L1165,191Z" fill="#7ba9ab" stroke="#7ba9ab"/><path d="M1165,191L1135,332L1251,215Z" fill="#73a0b0" stroke="#73a0b0"/><path d="M1251,215L1135,332L1332,319Z" fill="#6d9fbc" stroke="#6d9fbc"/><path d="M1251,215L1332,319L1396,217Z" fill="#738eb5" stroke="#738eb5"/><path d="M1396,217L1332,319L1377,395Z" fill="#6991c6" stroke="#6991c6"/><path d="M1396,217L1377,395L1566,351Z" fill="#6889cb" stroke="#6889cb"/><path d="M1396,217L1566,351L1630,273Z" fill="#6e79c4" stroke="#6e79c4"/><path d="M1630,273L1566,351L1576,508Z" fill="#5071d5" stroke="#5071d5"/><path d="M1630,273L1576,508L1565,733Z" fill="#154bdf" stroke="#154bdf"/><path d="M-41,412L-131,583L32,641Z" fill="#6b417d" stroke="#6b417d"/><path d="M-41,412L32,641L132,519Z" fill="#7a5b84" stroke="#7a5b84"/><path d="M-41,412L132,519L36,336Z" fill="#a9797c" stroke="#a9797c"/><path d="M36,336L132,519L244,352Z" fill="#b79484" stroke="#b79484"/><path d="M244,352L132,519L240,518Z" fill="#9f918f" stroke="#9f918f"/><path d="M244,352L240,518L383,411Z" fill="#b4ae95" stroke="#b4ae95"/><path d="M383,411L240,518L401,547Z" fill="#99a6a0" stroke="#99a6a0"/><path d="M383,411L401,547L483,385Z" fill="#a4b9a4" stroke="#a4b9a4"/><path d="M483,385L401,547L563,472Z" fill="#93b7ac" stroke="#93b7ac"/><path d="M483,385L563,472L731,407Z" fill="#9ccdb2" stroke="#9ccdb2"/><path d="M731,407L563,472L680,504Z" fill="#82c5bc" stroke="#82c5bc"/><path d="M731,407L680,504L832,483Z" fill="#71bdc1" stroke="#71bdc1"/><path d="M731,407L832,483L875,345Z" fill="#7dc5bf" stroke="#7dc5bf"/><path d="M875,345L832,483L968,483Z" fill="#63b2c3" stroke="#63b2c3"/><path d="M875,345L968,483L985,343Z" fill="#6fbac2" stroke="#6fbac2"/><path d="M985,343L968,483L1156,485Z" fill="#489fc8" stroke="#489fc8"/><path d="M985,343L1156,485L1135,332Z" fill="#55a7c6" stroke="#55a7c6"/><path d="M1135,332L1156,485L1332,319Z" fill="#4f9ac9" stroke="#4f9ac9"/><path d="M1332,319L1156,485L1308,521Z" fill="#3280d0" stroke="#3280d0"/><path d="M1332,319L1308,521L1377,395Z" fill="#407fd0" stroke="#407fd0"/><path d="M1377,395L1308,521L1435,535Z" fill="#1f65d6" stroke="#1f65d6"/><path d="M1377,395L1435,535L1566,351Z" fill="#396ad5" stroke="#396ad5"/><path d="M1566,351L1435,535L1576,508Z" fill="#2757da" stroke="#2757da"/><path d="M-131,583L-110,780L-38,678Z" fill="#671682" stroke="#671682"/><path d="M-131,583L-38,678L32,641Z" fill="#692784" stroke="#692784"/><path d="M132,519L32,641L263,659Z" fill="#745895" stroke="#745895"/><path d="M132,519L263,659L240,518Z" fill="#787398" stroke="#787398"/><path d="M240,518L263,659L401,547Z" fill="#7d84a2" stroke="#7d84a2"/><path d="M401,547L263,659L339,670Z" fill="#7e7caa" stroke="#7e7caa"/><path d="M401,547L339,670L510,664Z" fill="#7682b2" stroke="#7682b2"/><path d="M401,547L510,664L563,472Z" fill="#6d9cb4" stroke="#6d9cb4"/><path d="M563,472L510,664L669,625Z" fill="#629abf" stroke="#629abf"/><path d="M563,472L669,625L680,504Z" fill="#62aec0" stroke="#62aec0"/><path d="M680,504L669,625L832,483Z" fill="#53aac6" stroke="#53aac6"/><path d="M832,483L669,625L815,678Z" fill="#4593cc" stroke="#4593cc"/><path d="M832,483L815,678L968,483Z" fill="#3394cb" stroke="#3394cb"/><path d="M968,483L815,678L952,702Z" fill="#2b79d3" stroke="#2b79d3"/><path d="M968,483L952,702L1160,656Z" fill="#156bd6" stroke="#156bd6"/><path d="M968,483L1160,656L1156,485Z" fill="#0c79d2" stroke="#0c79d2"/><path d="M1156,485L1160,656L1308,521Z" fill="#0066d7" stroke="#0066d7"/><path d="M1308,521L1160,656L1289,688Z" fill="#004bde" stroke="#004bde"/><path d="M1308,521L1289,688L1435,535Z" fill="#004cde" stroke="#004cde"/><path d="M1435,535L1289,688L1375,728Z" fill="#0034e4" stroke="#0034e4"/><path d="M1435,535L1375,728L1565,733Z" fill="#0023e8" stroke="#0023e8"/><path d="M1435,535L1565,733L1576,508Z" fill="#0031e4" stroke="#0031e4"/><path d="M-38,678L-110,780L56,784Z" fill="#6a088b" stroke="#6a088b"/><path d="M-38,678L56,784L32,641Z" fill="#6d208f" stroke="#6d208f"/><path d="M32,641L56,784L263,659Z" fill="#723899" stroke="#723899"/><path d="M263,659L56,784L207,823Z" fill="#76339f" stroke="#76339f"/><path d="M263,659L207,823L382,790Z" fill="#7c4baa" stroke="#7c4baa"/><path d="M263,659L382,790L339,670Z" fill="#7e63af" stroke="#7e63af"/><path d="M339,670L382,790L510,664Z" fill="#766ab7" stroke="#766ab7"/><path d="M510,664L382,790L477,832Z" fill="#715fbc" stroke="#715fbc"/><path d="M510,664L477,832L676,823Z" fill="#6566c5" stroke="#6566c5"/><path d="M510,664L676,823L669,625Z" fill="#5e79cb" stroke="#5e79cb"/><path d="M669,625L676,823L815,678Z" fill="#4f77d3" stroke="#4f77d3"/><path d="M815,678L676,823L806,802Z" fill="#4664d4" stroke="#4664d4"/><path d="M815,678L806,802L952,702Z" fill="#3560d7" stroke="#3560d7"/><path d="M952,702L806,802L961,779Z" fill="#2c51d9" stroke="#2c51d9"/><path d="M952,702L961,779L1160,656Z" fill="#164edd" stroke="#164edd"/><path d="M1160,656L961,779L1137,871Z" fill="#0a3adf" stroke="#0a3adf"/><path d="M1160,656L1137,871L1275,791Z" fill="#002ce2" stroke="#002ce2"/><path d="M1160,656L1275,791L1289,688Z" fill="#0032e4" stroke="#0032e4"/><path d="M1289,688L1275,791L1375,728Z" fill="#0021e6" stroke="#0021e6"/><path d="M1375,728L1275,791L1420,884Z" fill="#0016e7" stroke="#0016e7"/><path d="M1375,728L1420,884L1524,862Z" fill="#000bea" stroke="#000bea"/><path d="M1375,728L1524,862L1565,733Z" fill="#0005ec" stroke="#0005ec"/><path d="M-110,780L207,823L56,784Z" fill="#6f1893" stroke="#6f1893"/><path d="M207,823L1137,871L477,832Z" fill="#5f6aca" stroke="#5f6aca"/><path d="M207,823L477,832L382,790Z" fill="#7d58b2" stroke="#7d58b2"/><path d="M477,832L1137,871L676,823Z" fill="#4764d4" stroke="#4764d4"/><path d="M676,823L1137,871L806,802Z" fill="#3256d8" stroke="#3256d8"/><path d="M806,802L1137,871L961,779Z" fill="#2049db" stroke="#2049db"/><path d="M1137,871L1420,884L1275,791Z" fill="#0020e5" stroke="#0020e5"/></g></svg>