<svg width="1366" height="659" xmlns="http://www.w3.org/2000/svg"><g><path d="M-51,-24L-63,79L62,-45Z" fill="#f7fcf6" stroke="#f7fcf6"/><path d="M-51,-24L62,-45L180,-133Z" fill="#f0f9ee" stroke="#f0f9ee"/><path d="M62,-45L-63,79L115,16Z" fill="#f1faee" stroke="#f1faee"/><path d="M62,-45L115,16L180,-133Z" fill="#ebf7e8" stroke="#ebf7e8"/><path d="M180,-133L115,16L182,102Z" fill="#e7f6e4" stroke="#e7f6e4"/><path d="M180,-133L182,102L337,96Z" fill="#def3d9" stroke="#def3d9"/><path d="M180,-133L337,96L406,-113Z" fill="#d8f0d5" stroke="#d8f0d5"/><path d="M180,-133L406,-113L662,-113Z" fill="#cdebcb" stroke="#cdebcb"/><path d="M180,-133L662,-113L1091,-130Z" fill="#b2deb7" stroke="#b2deb7"/><path d="M180,-133L1091,-130L1563,-133Z" fill="#94c8a4" stroke="#94c8a4"/><path d="M406,-113L337,96L520,-36Z" fill="#cdebca" stroke="#cdebca"/><path d="M406,-113L520,-36L662,-113Z" fill="#c0e5c0" stroke="#c0e5c0"/><path d="M520,-36L337,96L523,107Z" fill="#c3e8bf" stroke="#c3e8bf"/><path d="M520,-36L523,107L629,15Z" fill="#bae3b9" stroke="#bae3b9"/><path d="M520,-36L629,15L662,-113Z" fill="#b7e1ba" stroke="#b7e1ba"/><path d="M662,-113L629,15L794,20Z" fill="#abdbb4" stroke="#abdbb4"/><path d="M662,-113L794,20L853,-73Z" fill="#a2d6af" stroke="#a2d6af"/><path d="M662,-113L853,-73L1091,-130Z" fill="#99cea9" stroke="#99cea9"/><path d="M853,-73L794,20L986,104Z" fill="#97cda6" stroke="#97cda6"/><path d="M853,-73L986,104L1014,-93Z" fill="#93c7a4" stroke="#93c7a4"/><path d="M853,-73L1014,-93L1091,-130Z" fill="#90c4a2" stroke="#90c4a2"/><path d="M1014,-93L986,104L1092,32Z" fill="#8bbe9e" stroke="#8bbe9e"/><path d="M1014,-93L1092,32L1091,-130Z" fill="#89ba9e" stroke="#89ba9e"/><path d="M1091,-130L1092,32L1242,-122Z" fill="#82b09a" stroke="#82b09a"/><path d="M1091,-130L1242,-122L1563,-133Z" fill="#809d93" stroke="#809d93"/><path d="M1242,-122L1092,32L1229,126Z" fill="#7fab96" stroke="#7fab96"/><path d="M1242,-122L1229,126L1390,-58Z" fill="#809e93" stroke="#809e93"/><path d="M1242,-122L1390,-58L1563,-133Z" fill="#80908e" stroke="#80908e"/><path d="M1390,-58L1229,126L1478,40Z" fill="#7c948a" stroke="#7c948a"/><path d="M1390,-58L1478,40L1563,-133Z" fill="#80868a" stroke="#80868a"/><path d="M1563,-133L1478,40L1565,88Z" fill="#808087" stroke="#808087"/><path d="M1563,-133L1565,88L1572,215Z" fill="#7a807d" stroke="#7a807d"/><path d="M1563,-133L1572,215L1613,579Z" fill="#577c5a" stroke="#577c5a"/><path d="M1563,-133L1613,579L1635,805Z" fill="#1f5e36" stroke="#1f5e36"/><path d="M-63,79L-29,831L-30,727Z" fill="#7fb999" stroke="#7fb999"/><path d="M-63,79L-30,727L-42,370Z" fill="#9fe1ae" stroke="#9fe1ae"/><path d="M-63,79L-42,370L-26,240Z" fill="#cff9cc" stroke="#cff9cc"/><path d="M-63,79L-26,240L113,178Z" fill="#dbfbd6" stroke="#dbfbd6"/><path d="M-63,79L113,178L115,16Z" fill="#e8fae2" stroke="#e8fae2"/><path d="M115,16L113,178L182,102Z" fill="#dff6d8" stroke="#dff6d8"/><path d="M182,102L113,178L262,203Z" fill="#cbf5c4" stroke="#cbf5c4"/><path d="M182,102L262,203L337,96Z" fill="#caf2c4" stroke="#caf2c4"/><path d="M337,96L262,203L365,177Z" fill="#beefb8" stroke="#beefb8"/><path d="M337,96L365,177L523,107Z" fill="#bdebb7" stroke="#bdebb7"/><path d="M523,107L365,177L482,217Z" fill="#aee9a9" stroke="#aee9a9"/><path d="M523,107L482,217L710,249Z" fill="#9be299" stroke="#9be299"/><path d="M523,107L710,249L629,15Z" fill="#a5dfa4" stroke="#a5dfa4"/><path d="M629,15L710,249L794,20Z" fill="#a0daa6" stroke="#a0daa6"/><path d="M794,20L710,249L836,210Z" fill="#88d592" stroke="#88d592"/><path d="M794,20L836,210L986,104Z" fill="#8cce98" stroke="#8cce98"/><path d="M986,104L836,210L949,277Z" fill="#73c980" stroke="#73c980"/><path d="M986,104L949,277L1172,172Z" fill="#6dbe7d" stroke="#6dbe7d"/><path d="M986,104L1172,172L1092,32Z" fill="#7db88e" stroke="#7db88e"/><path d="M1092,32L1172,172L1229,126Z" fill="#73ae89" stroke="#73ae89"/><path d="M1229,126L1172,172L1334,284Z" fill="#5fa371" stroke="#5fa371"/><path d="M1229,126L1334,284L1440,235Z" fill="#599568" stroke="#599568"/><path d="M1229,126L1440,235L1478,40Z" fill="#6d9278" stroke="#6d9278"/><path d="M1478,40L1440,235L1565,88Z" fill="#708476" stroke="#708476"/><path d="M1565,88L1440,235L1572,215Z" fill="#628066" stroke="#628066"/><path d="M-26,240L-42,370L119,433Z" fill="#a5e6af" stroke="#a5e6af"/><path d="M-26,240L119,433L196,349Z" fill="#9fe4a8" stroke="#9fe4a8"/><path d="M-26,240L196,349L113,178Z" fill="#baf1b8" stroke="#baf1b8"/><path d="M113,178L196,349L262,203Z" fill="#b4eeb0" stroke="#b4eeb0"/><path d="M262,203L196,349L344,427Z" fill="#94e099" stroke="#94e099"/><path d="M262,203L344,427L365,177Z" fill="#a0e69e" stroke="#a0e69e"/><path d="M365,177L344,427L482,217Z" fill="#97e296" stroke="#97e296"/><path d="M482,217L344,427L496,415Z" fill="#79d484" stroke="#79d484"/><path d="M482,217L496,415L718,348Z" fill="#73d17d" stroke="#73d17d"/><path d="M482,217L718,348L710,249Z" fill="#7cd581" stroke="#7cd581"/><path d="M710,249L718,348L866,319Z" fill="#60c873" stroke="#60c873"/><path d="M710,249L866,319L836,210Z" fill="#6acb79" stroke="#6acb79"/><path d="M836,210L866,319L949,277Z" fill="#62c472" stroke="#62c472"/><path d="M949,277L866,319L998,432Z" fill="#46b462" stroke="#46b462"/><path d="M949,277L998,432L1067,426Z" fill="#35a858" stroke="#35a858"/><path d="M949,277L1067,426L1172,172Z" fill="#4cae64" stroke="#4cae64"/><path d="M1172,172L1067,426L1215,367Z" fill="#3b9e5a" stroke="#3b9e5a"/><path d="M1172,172L1215,367L1334,284Z" fill="#489b5e" stroke="#489b5e"/><path d="M1334,284L1215,367L1439,357Z" fill="#348650" stroke="#348650"/><path d="M1334,284L1439,357L1440,235Z" fill="#428353" stroke="#428353"/><path d="M1440,235L1439,357L1572,215Z" fill="#497c54" stroke="#497c54"/><path d="M1572,215L1439,357L1586,420Z" fill="#366e47" stroke="#366e47"/><path d="M1572,215L1586,420L1613,579Z" fill="#216138" stroke="#216138"/><path d="M-42,370L-30,727L-19,575Z" fill="#7bb596" stroke="#7bb596"/><path d="M-42,370L-19,575L48,488Z" fill="#8acd9d" stroke="#8acd9d"/><path d="M-42,370L48,488L119,433Z" fill="#8fd69f" stroke="#8fd69f"/><path d="M119,433L48,488L195,482Z" fill="#80cb92" stroke="#80cb92"/><path d="M119,433L195,482L196,349Z" fill="#84d393" stroke="#84d393"/><path d="M196,349L195,482L344,427Z" fill="#7dd08d" stroke="#7dd08d"/><path d="M344,427L195,482L333,567Z" fill="#6abd7e" stroke="#6abd7e"/><path d="M344,427L333,567L493,561Z" fill="#5bb171" stroke="#5bb171"/><path d="M344,427L493,561L496,415Z" fill="#60bd72" stroke="#60bd72"/><path d="M496,415L493,561L707,503Z" fill="#4caf64" stroke="#4caf64"/><path d="M496,415L707,503L718,348Z" fill="#51bc68" stroke="#51bc68"/><path d="M718,348L707,503L818,470Z" fill="#40b15e" stroke="#40b15e"/><path d="M718,348L818,470L866,319Z" fill="#45ba65" stroke="#45ba65"/><path d="M866,319L818,470L998,432Z" fill="#39ac5b" stroke="#39ac5b"/><path d="M998,432L818,470L991,551Z" fill="#26984d" stroke="#26984d"/><path d="M998,432L991,551L1094,504Z" fill="#1c8a46" stroke="#1c8a46"/><path d="M998,432L1094,504L1067,426Z" fill="#22934a" stroke="#22934a"/><path d="M1067,426L1094,504L1215,367Z" fill="#208d4a" stroke="#208d4a"/><path d="M1215,367L1094,504L1270,575Z" fill="#127a40" stroke="#127a40"/><path d="M1215,367L1270,575L1439,357Z" fill="#1c7742" stroke="#1c7742"/><path d="M1439,357L1270,575L1474,533Z" fill="#115f35" stroke="#115f35"/><path d="M1439,357L1474,533L1586,420Z" fill="#1b5e37" stroke="#1b5e37"/><path d="M1586,420L1474,533L1613,579Z" fill="#0c472a" stroke="#0c472a"/><path d="M-19,575L-30,727L24,646Z" fill="#789889" stroke="#789889"/><path d="M-19,575L24,646L48,488Z" fill="#75b090" stroke="#75b090"/><path d="M48,488L24,646L222,615Z" fill="#6da886" stroke="#6da886"/><path d="M48,488L222,615L195,482Z" fill="#70b786" stroke="#70b786"/><path d="M195,482L222,615L333,567Z" fill="#60ab7a" stroke="#60ab7a"/><path d="M333,567L222,615L352,680Z" fill="#59946d" stroke="#59946d"/><path d="M333,567L352,680L493,561Z" fill="#509667" stroke="#509667"/><path d="M493,561L352,680L469,714Z" fill="#4b855c" stroke="#4b855c"/><path d="M493,561L469,714L616,674Z" fill="#418054" stroke="#418054"/><path d="M493,561L616,674L707,503Z" fill="#389255" stroke="#389255"/><path d="M707,503L616,674L824,618Z" fill="#29854c" stroke="#29854c"/><path d="M707,503L824,618L818,470Z" fill="#289650" stroke="#289650"/><path d="M818,470L824,618L991,551Z" fill="#1d8949" stroke="#1d8949"/><path d="M991,551L824,618L1031,699Z" fill="#146b3b" stroke="#146b3b"/><path d="M991,551L1031,699L1146,617Z" fill="#0b5f35" stroke="#0b5f35"/><path d="M991,551L1146,617L1094,504Z" fill="#0a713c" stroke="#0a713c"/><path d="M1094,504L1146,617L1270,575Z" fill="#006337" stroke="#006337"/><path d="M1270,575L1146,617L1270,721Z" fill="#00442b" stroke="#00442b"/><path d="M1270,575L1270,721L1444,618Z" fill="#003826" stroke="#003826"/><path d="M1270,575L1444,618L1474,533Z" fill="#00432a" stroke="#00432a"/><path d="M1474,533L1444,618L1613,579Z" fill="#003525" stroke="#003525"/><path d="M1613,579L1444,618L1613,734Z" fill="#001d1a" stroke="#001d1a"/><path d="M1613,579L1613,734L1635,805Z" fill="#000a10" stroke="#000a10"/><path d="M-30,727L-29,831L60,857Z" fill="#777c75" stroke="#777c75"/><path d="M-30,727L60,857L24,646Z" fill="#757c7a" stroke="#757c7a"/><path d="M24,646L60,857L222,615Z" fill="#6d8277" stroke="#6d8277"/><path d="M222,615L60,857L279,784Z" fill="#657568" stroke="#657568"/><path d="M222,615L279,784L352,680Z" fill="#5b7f66" stroke="#5b7f66"/><path d="M352,680L279,784L327,791Z" fill="#58705b" stroke="#58705b"/><path d="M352,680L327,791L469,714Z" fill="#517058" stroke="#517058"/><path d="M469,714L327,791L472,883Z" fill="#4d6b4c" stroke="#4d6b4c"/><path d="M469,714L472,883L648,777Z" fill="#416543" stroke="#416543"/><path d="M469,714L648,777L616,674Z" fill="#3b6746" stroke="#3b6746"/><path d="M616,674L648,777L824,618Z" fill="#2c6a43" stroke="#2c6a43"/><path d="M824,618L648,777L806,797Z" fill="#245939" stroke="#245939"/><path d="M824,618L806,797L947,835Z" fill="#1b4f31" stroke="#1b4f31"/><path d="M824,618L947,835L1031,699Z" fill="#154f30" stroke="#154f30"/><path d="M1031,699L947,835L1183,774Z" fill="#0b3c23" stroke="#0b3c23"/><path d="M1031,699L1183,774L1146,617Z" fill="#054029" stroke="#054029"/><path d="M1146,617L1183,774L1270,721Z" fill="#003424" stroke="#003424"/><path d="M1270,721L1183,774L1309,803Z" fill="#00231a" stroke="#00231a"/><path d="M1270,721L1309,803L1444,618Z" fill="#001f1c" stroke="#001f1c"/><path d="M1444,618L1309,803L1471,846Z" fill="#000f14" stroke="#000f14"/><path d="M1444,618L1471,846L1613,734Z" fill="#000412" stroke="#000412"/><path d="M1613,734L1471,846L1635,805Z" fill="#000007" stroke="#000007"/><path d="M60,857L472,883L279,784Z" fill="#5c7259" stroke="#5c7259"/><path d="M279,784L472,883L327,791Z" fill="#546e51" stroke="#546e51"/><path d="M472,883L1471,846L947,835Z" fill="#134724" stroke="#134724"/><path d="M472,883L947,835L806,797Z" fill="#265831" stroke="#265831"/><path d="M472,883L806,797L648,777Z" fill="#335f38" stroke="#335f38"/><path d="M947,835L1471,846L1309,803Z" fill="#002416" stroke="#002416"/><path d="M947,835L1309,803L1183,774Z" fill="#02301b" stroke="#02301b"/></g></svg>